<svg xmlns="http://www.w3.org/2000/svg" fill="none" viewBox="0 0 154 55" height="55" width="154">
<path fill="white" d="M7.32174 31.1373C7.48598 30.7553 7.60437 30.4918 7.7266 30.2206C8.41289 28.7387 9.30537 27.3615 10.3775 26.1297C12.0849 24.1396 13.8687 22.2145 15.5952 20.2435C17.3217 18.2726 18.9909 16.3054 20.0833 13.9296C20.5744 12.7352 20.9878 11.5104 21.3209 10.2627C21.5233 9.59423 21.657 8.90288 21.806 8.21916C21.8519 7.99761 21.8289 7.76078 21.8709 7.53924C21.9164 7.41148 21.9794 7.29062 22.0581 7.18016C22.1803 7.25274 22.3751 7.29861 22.4133 7.40556C22.8258 8.46743 23.2498 9.53314 23.6012 10.6141C24.0443 11.993 23.9832 13.433 23.8648 14.8387C23.7445 15.867 23.5115 16.8789 23.1697 17.8562C22.5139 19.8894 21.5011 21.7894 20.1788 23.4673C19.2201 24.7087 18.1849 25.8967 17.1231 27.0388C15.515 28.75 13.842 30.4039 12.1957 32.0769C10.8163 33.4496 9.80589 35.1484 9.2583 37.0158C8.95272 38.0853 8.93363 39.235 8.78848 40.3542C8.78848 40.4879 8.81522 40.633 8.78848 40.7629C8.73987 40.8958 8.67847 41.0238 8.60515 41.1449C8.48674 41.0685 8.32247 41.0226 8.25372 40.9157C7.82209 40.232 7.3905 39.552 7.0009 38.8454C5.62581 36.3397 4.24305 33.834 2.90998 31.3053C1.95988 29.5677 1.26885 27.7005 0.858807 25.763C0.54898 24.1102 0.468006 22.4226 0.618165 20.7477C0.783423 19.0471 1.21124 17.3823 1.88633 15.8127C2.51332 14.3548 3.33155 12.9868 4.31947 11.7447C5.47683 10.1854 6.86833 8.81453 8.4447 7.68057C10.0528 6.53466 11.6533 5.38877 13.3416 4.40329C15.4195 3.17335 17.5853 2.08471 19.7167 0.938806C20.3049 0.625591 20.8969 0.320018 21.4966 0.0335412C21.6299 -0.00133023 21.7689 -0.00909884 21.9053 0.0106474C21.891 0.164126 21.8469 0.313302 21.7754 0.449874C20.8281 1.59578 19.9152 2.79898 18.8992 3.88759C16.6074 6.35129 14.2277 8.75389 11.9092 11.2023C10.6785 12.4706 9.58622 13.8663 8.65098 15.3658C8.25051 15.9935 7.88207 16.6412 7.54709 17.3062C6.87267 18.6734 6.42627 20.1417 6.22549 21.653C5.9292 24.3597 6.18917 27.0984 6.98943 29.7011C7.06425 30.0733 7.11783 30.4495 7.14987 30.8279C7.14223 30.9043 7.21861 30.9692 7.32174 31.1373Z"></path>
<path fill="white" d="M10.9004 47.5965C11.0188 46.8326 11.1525 45.805 11.3358 44.8043C11.7598 42.4857 12.837 40.4575 14.151 38.5286C15.293 36.8894 16.5789 35.3555 17.9936 33.9449C19.6322 32.2834 21.2899 30.6409 22.8904 28.945C24.0348 27.7455 24.9054 26.3119 25.442 24.7433C25.9521 23.3796 26.2021 21.9325 26.1791 20.4767C26.1945 20.3431 26.2347 20.2136 26.2976 20.0947C26.4252 20.1516 26.5426 20.229 26.6451 20.3239C27.9372 22.0877 28.5563 24.2553 28.3908 26.4354C28.3228 27.6957 28.0465 28.9361 27.5733 30.1061C26.5382 32.6348 24.8996 34.7356 23.1425 36.7524C21.1334 39.0442 19.0516 41.2749 17.1189 43.6278C15.7479 45.3238 14.6993 47.2567 14.0249 49.3306C13.5763 50.7167 13.2491 52.1392 13.0471 53.582C12.9846 53.7675 12.8902 53.9407 12.7682 54.0938C12.6235 53.955 12.4953 53.7999 12.3863 53.6316C12.18 53.1924 12.0043 52.734 11.8209 52.2871C11.2327 50.8853 11.0532 49.3765 10.9004 47.5965Z"></path>
<path fill="white" d="M90.5664 36.5059C90.6258 35.915 90.6738 35.3213 90.7502 34.7304C90.8915 33.6787 91.0499 32.627 91.1969 31.5753C91.4117 30.0674 91.6247 28.5681 91.8358 27.0772C91.997 25.9463 92.1525 24.8154 92.3136 23.6619C92.455 22.6667 92.5963 21.6829 92.7462 20.682C92.8169 20.1901 92.8847 19.701 92.9639 19.2119C92.9791 19.1334 92.9733 19.0523 92.9469 18.9768C92.9206 18.9013 92.8748 18.8341 92.814 18.7821C92.6699 18.6379 92.5313 18.4994 92.3815 18.3496C92.3042 18.2598 92.2324 18.1654 92.1666 18.0668C92.356 18.0471 92.4776 18.0244 92.5992 18.0244H98.3243C98.3968 18.0202 98.4695 18.0202 98.542 18.0244C98.7964 18.0499 98.8247 18.0951 98.7992 18.3637C98.7568 18.7114 98.7088 19.0564 98.6607 19.4013C98.4534 20.8149 98.2479 22.2285 98.0444 23.6421C98.0444 23.6986 98.0444 23.7552 98.0444 23.8739C98.2225 23.8909 98.4006 23.9248 98.5787 23.9248H106.447C107.14 23.9248 107.148 23.9248 107.055 24.5949C106.772 26.5287 106.489 28.4568 106.224 30.3878C106.012 31.8863 105.804 33.3856 105.599 34.8859C105.571 35.1773 105.47 35.457 105.306 35.6994C105.142 35.9419 104.92 36.1395 104.66 36.2741C104.559 36.3474 104.464 36.4297 104.377 36.5201L90.5664 36.5059ZM96.6958 33.526H98.1292C98.6664 33.526 99.2035 33.526 99.7407 33.526C99.9641 33.526 100.091 33.4667 100.117 33.215C100.156 32.8107 100.23 32.4093 100.286 32.0078L100.948 27.3033C100.948 27.1931 100.948 27.0828 100.968 26.933C100.79 26.916 100.651 26.8962 100.51 26.8934H98.1094C97.6118 26.8934 97.5977 26.8934 97.5242 27.3684C97.2433 29.2645 96.9682 31.1625 96.6986 33.0624C96.6886 33.2186 96.6877 33.3753 96.6958 33.5317V33.526Z"></path>
<path fill="white" d="M34 36.5061C34.1555 35.3243 34.3053 34.1425 34.4665 32.9607C34.6163 31.8638 34.7775 30.7696 34.933 29.6755L35.374 26.5656C35.5286 25.4573 35.686 24.3481 35.8462 23.2379C35.9423 22.5764 36.0215 21.9092 36.1515 21.2589C36.2151 21.0654 36.2154 20.8567 36.1524 20.663C36.0894 20.4693 35.9662 20.3007 35.8009 20.1817C35.6491 20.0513 35.5056 19.9116 35.3712 19.7633C35.4706 19.7306 35.5728 19.7069 35.6765 19.6926H51.8821C51.8821 19.9216 51.8821 20.0913 51.8454 20.2581C51.7605 20.8235 51.6701 21.4087 51.5768 21.9855C51.5033 22.4294 51.5004 22.4294 51.0566 22.4294H41.7268C41.4836 23.614 41.379 24.7844 41.1868 25.9945C41.3133 26.0244 41.4418 26.0452 41.5713 26.0567C42.8803 26.0567 44.1921 26.0284 45.5011 26.0227C46.9147 26.0227 48.3283 26.0227 49.7419 26.0227C50.0246 26.0227 50.084 26.0765 50.0444 26.3592C49.954 27.0349 49.8522 27.7134 49.7391 28.3863C49.691 28.6888 49.6486 28.7114 49.3348 28.7171C49.0719 28.7171 48.8089 28.7171 48.5488 28.7171H40.8221C40.7542 29.0988 40.6864 29.438 40.6326 29.7801C40.4998 30.6707 40.3754 31.5641 40.2481 32.4575C40.2256 32.6017 40.2115 32.747 40.2057 32.8929C40.1916 33.1954 40.2312 33.235 40.5478 33.2519H40.6355L49.3744 33.3085C49.5553 33.3085 49.7334 33.3367 49.9568 33.3565C49.8126 34.4478 49.7108 35.4883 49.4762 36.5089L34 36.5061Z"></path>
<path fill="white" d="M119.068 36.506C119.142 35.8727 119.204 35.2366 119.292 34.6033C119.591 32.4584 119.896 30.3116 120.205 28.1629C120.488 26.2489 120.77 24.3348 121.036 22.418C121.183 21.3804 121.319 20.34 121.471 19.3081C121.498 19.1882 121.49 19.0635 121.45 18.9478C121.409 18.832 121.337 18.7297 121.242 18.6521C121.064 18.491 120.906 18.3072 120.7 18.0867C120.802 18.0504 120.907 18.0239 121.013 18.0075C123.032 18.0075 125.051 17.9906 127.14 18.0075C126.832 20.6962 126.425 23.3057 126.128 25.9237C126.32 26.0453 126.411 25.9237 126.507 25.8474C127.355 25.282 128.203 24.7165 129.037 24.1313C129.263 23.9734 129.534 23.893 129.809 23.9023C131.542 23.9023 133.275 23.9023 135.011 23.9023H135.356C135.415 24.1284 135.254 24.185 135.144 24.2557L132.659 25.952C131.29 26.8944 129.923 27.8368 128.556 28.7792C128.438 28.8584 128.327 28.9488 128.169 29.0619C128.415 29.3447 128.633 29.6274 128.856 29.879C130.615 31.9202 132.373 33.9596 134.132 35.9971C134.271 36.1265 134.355 36.3048 134.366 36.4947H128.169C128.132 36.3761 128.08 36.2622 128.016 36.1554C127.205 35.1433 126.385 34.1396 125.568 33.136C125.479 33.0425 125.384 32.9537 125.285 32.8702C125.241 32.9801 125.206 33.0936 125.181 33.2095C125.09 33.8569 125.006 34.5071 124.921 35.1574L124.751 36.4947L119.068 36.506Z"></path>
<path fill="white" d="M73.2555 36.506C73.1792 36.4296 73.117 36.325 73.0237 36.277C72.3932 35.9349 72.0257 35.4288 72.0879 34.6909C72.1416 34.0831 72.2264 33.4752 72.3112 32.8702C72.5431 31.2285 72.7777 29.5868 73.0152 27.9452L73.5411 24.2698C73.5863 23.9645 73.6287 23.9277 73.9256 23.9079C73.9991 23.9079 74.0697 23.9079 74.1433 23.9079H86.4671C86.7892 23.8834 87.1112 23.9573 87.3904 24.1199C87.6696 24.2825 87.8928 24.526 88.0305 24.8183C88.1798 25.1029 88.2362 25.4273 88.1917 25.7456C87.8769 27.9226 87.5669 30.0986 87.2615 32.2736C87.0891 33.5007 86.9194 34.7248 86.7441 35.949C86.7159 36.1356 86.6706 36.3194 86.631 36.5145L73.2555 36.506ZM82.3224 26.6842C82.2531 26.6566 82.1811 26.6367 82.1075 26.6249H79.2238C78.9863 26.6249 78.893 26.7549 78.8647 26.9754C78.8082 27.4363 78.7403 27.8971 78.6753 28.3579C78.4548 29.945 78.2323 31.531 78.0081 33.1161C77.9939 33.2264 77.9911 33.3367 77.977 33.4978C78.1664 33.4978 78.319 33.5289 78.4745 33.5289H80.8777C81.3526 33.5289 81.364 33.5289 81.4431 33.0737C81.7202 31.1889 81.9935 29.3041 82.263 27.4193C82.2828 27.1762 82.2969 26.9585 82.3224 26.6899V26.6842Z"></path>
<path fill="white" d="M138.561 36.506C138.47 36.399 138.366 36.304 138.25 36.2233C137.95 36.0572 137.707 35.8027 137.555 35.4943C137.404 35.1859 137.35 34.8384 137.402 34.4987C137.685 32.743 137.908 30.9845 138.157 29.2259C138.38 27.6568 138.598 26.0849 138.821 24.5158C138.838 24.3999 138.864 24.2868 138.881 24.1709C138.88 24.1296 138.889 24.0888 138.906 24.0511C138.923 24.0135 138.948 23.98 138.979 23.9531C139.01 23.9262 139.047 23.9064 139.087 23.8952C139.126 23.884 139.168 23.8816 139.209 23.8882C139.296 23.8882 139.384 23.8882 139.472 23.8882H152.576C153.175 23.8882 153.187 23.9051 153.102 24.5073C152.859 26.1754 152.619 27.8453 152.384 29.5172C152.327 29.9045 152.262 30.2946 152.217 30.6848C152.217 30.7249 152.209 30.7647 152.193 30.8014C152.176 30.8381 152.152 30.871 152.122 30.8977C152.092 30.9245 152.057 30.9445 152.019 30.9566C151.98 30.9686 151.94 30.9723 151.9 30.9675H151.725C150.184 30.9675 148.64 30.9845 147.097 31.0014C146.065 31.0014 145.033 31.0382 143.987 31.058C143.667 31.058 143.591 31.1089 143.549 31.369C143.45 32.0023 143.368 32.6356 143.286 33.2717C143.287 33.3423 143.296 33.4125 143.314 33.4809C143.475 33.4809 143.631 33.5035 143.783 33.5007C145.169 33.5007 146.552 33.4884 147.934 33.4639C148.878 33.4639 149.825 33.4187 150.761 33.413C150.884 33.4224 151.007 33.3971 151.116 33.3402C151.226 33.2832 151.317 33.1968 151.38 33.0907C151.493 32.9126 151.629 32.7486 151.815 32.4914C151.849 32.6151 151.869 32.7421 151.875 32.8702C151.767 33.6336 151.657 34.3969 151.538 35.1574C151.468 35.6013 151.377 36.0423 151.295 36.4834L138.561 36.506ZM144.247 26.6871C144.221 27.1677 144.029 27.6455 144.086 28.1855C144.267 28.1855 144.408 28.2053 144.549 28.2053H146.989C147.182 28.2053 147.396 28.2195 147.439 27.9707C147.509 27.5466 147.555 27.1225 147.608 26.6984C146.49 26.5975 145.365 26.5956 144.247 26.6928V26.6871Z"></path>
<path fill="white" d="M58.054 36.5061C57.8476 35.7512 57.6441 34.9963 57.4377 34.2443C57.0946 32.9965 56.7535 31.7488 56.4142 30.5011L55.4021 26.8935C55.2579 26.3733 55.0996 25.8588 54.9865 25.3329C54.9233 25.0173 54.7597 24.7307 54.52 24.5158C54.3673 24.3717 54.2373 24.2049 54.0479 24.0041C54.1392 23.9677 54.2339 23.9403 54.3306 23.9221H59.9228C60.2819 23.9221 60.3271 23.973 60.4176 24.3405C60.9133 26.3724 61.409 28.4061 61.9047 30.4417C61.9047 30.4558 61.9216 30.4671 61.9443 30.4954C62.1167 30.4756 62.145 30.3145 62.2044 30.1957C63.1741 28.2421 64.1495 26.2913 65.1023 24.3292C65.152 24.1943 65.2457 24.0799 65.3682 24.0045C65.4907 23.9292 65.635 23.8972 65.778 23.9137C66.9428 23.9306 68.1076 23.9137 69.2724 23.9137C69.4137 23.9137 69.5551 23.9136 69.7502 23.9391C69.7356 24.0622 69.7081 24.1835 69.6682 24.301C68.5618 26.6551 67.4526 29.0111 66.3406 31.369C65.6093 32.9183 64.8798 34.4695 64.1523 36.0226C64.0788 36.1809 64.0336 36.3506 63.9742 36.5145L58.054 36.5061Z"></path>
<path fill="white" d="M109.45 36.5059C109.527 35.7991 109.589 35.0923 109.685 34.3855C109.891 32.8588 110.117 31.3321 110.335 29.8054C110.553 28.2787 110.754 26.8057 110.985 25.3129C111.025 25.1739 111.022 25.0264 110.979 24.8887C110.935 24.751 110.852 24.6291 110.739 24.5383C110.56 24.3689 110.389 24.1905 110.228 24.0039C110.318 23.9615 110.413 23.9302 110.51 23.9106H116.578C116.661 23.9183 116.744 23.9316 116.826 23.9502C116.837 24.0621 116.837 24.1748 116.826 24.2867C116.626 25.6833 116.416 27.0799 116.216 28.4766C116.009 29.9326 115.811 31.3886 115.608 32.8446C115.465 33.8681 115.319 34.8906 115.17 35.9122C115.139 36.1129 115.074 36.308 115.023 36.5059H109.45Z"></path>
<path fill="white" d="M111.293 22.9721C111.434 21.9656 111.559 21.0439 111.7 20.1251C111.762 19.7406 111.796 19.7292 112.189 19.7292H117.041C117.425 19.7292 117.465 19.7745 117.411 20.1703C117.298 21.0185 117.171 21.8412 117.063 22.678C117.032 22.9099 116.928 23.0201 116.699 23.0173H111.802C111.649 23.0173 111.488 22.989 111.293 22.9721Z"></path>
</svg>
