<svg xmlns="http://www.w3.org/2000/svg" fill="none" viewBox="0 0 660 234" height="234" width="660">
<path fill="#106835" d="M29.2844 134.552C29.9942 132.902 30.5057 131.763 31.0339 130.591C33.9995 124.188 37.8562 118.236 42.4891 112.913C49.8672 104.314 57.5756 95.9947 65.0362 87.4776C72.4969 78.9606 79.7099 70.46 84.4306 60.1934C86.5528 55.0322 88.3391 49.7393 89.7785 44.3478C90.6533 41.4592 91.2311 38.4717 91.8748 35.5171C92.0729 34.5598 91.9737 33.5364 92.1553 32.579C92.3518 32.027 92.624 31.5047 92.964 31.0274C93.4922 31.341 94.3339 31.5392 94.499 32.0014C96.2816 36.59 98.1139 41.1952 99.6325 45.8664C101.547 51.825 101.283 58.0476 100.771 64.1218C100.252 68.5654 99.2445 72.9384 97.7675 77.1615C94.9339 85.9473 90.5573 94.158 84.8433 101.409C80.7003 106.773 76.2272 111.906 71.6386 116.842C64.6896 124.236 57.46 131.383 50.3459 138.613C44.3852 144.545 40.0191 151.886 37.6528 159.955C36.3323 164.577 36.2498 169.545 35.6226 174.381C35.6226 174.959 35.7382 175.586 35.6226 176.147C35.4125 176.722 35.1472 177.275 34.8304 177.798C34.3187 177.468 33.6089 177.27 33.3118 176.807C31.4466 173.853 29.5816 170.915 27.898 167.861C21.9559 157.033 15.9806 146.206 10.22 135.279C6.11441 127.77 3.1283 119.701 1.35638 111.329C0.0175376 104.186 -0.332374 96.8939 0.316502 89.6563C1.03062 82.3074 2.87932 75.1136 5.79657 68.3308C8.50599 62.0308 12.0418 56.1193 16.3108 50.752C21.3121 44.014 27.3251 38.0899 34.137 33.1898C41.086 28.238 48.0021 23.2863 55.2977 19.0278C64.2769 13.7129 73.6358 9.00859 82.8461 4.05683C85.388 2.70335 87.9463 1.38288 90.5377 0.144941C91.1139 -0.00574826 91.7146 -0.0393185 92.304 0.04601C92.2422 0.709232 92.0515 1.35386 91.7426 1.94403C87.6492 6.89579 83.7042 12.0951 79.3136 16.7993C69.4101 27.4456 59.1271 37.8279 49.108 48.4081C43.7897 53.8886 39.0699 59.9198 35.0284 66.3996C33.2979 69.1123 31.7058 71.9108 30.2582 74.7845C27.3439 80.6928 25.4148 87.0377 24.5472 93.5682C23.2669 105.265 24.3903 117.1 27.8484 128.346C28.1717 129.955 28.4033 131.58 28.5417 133.215C28.5087 133.546 28.8388 133.826 29.2844 134.552Z"></path>
<path fill="#106835" d="M44.75 205.676C45.2617 202.375 45.8394 197.935 46.6317 193.61C48.4638 183.591 53.1185 174.827 58.7965 166.491C63.7314 159.408 69.2885 152.78 75.4015 146.684C82.4826 139.504 89.6458 132.407 96.5618 125.078C101.507 119.895 105.269 113.7 107.588 106.922C109.792 101.029 110.873 94.7753 110.774 88.4846C110.84 87.9073 111.014 87.3476 111.285 86.834C111.837 87.0799 112.344 87.4144 112.787 87.8243C118.371 95.4462 121.046 104.813 120.331 114.234C120.037 119.68 118.843 125.04 116.798 130.096C112.325 141.023 105.244 150.101 97.6515 158.816C88.9694 168.72 79.9736 178.359 71.6216 188.527C65.6973 195.856 61.166 204.208 58.2519 213.17C56.3131 219.16 54.8992 225.307 54.0263 231.541C53.7562 232.343 53.3485 233.091 52.8214 233.753C52.196 233.153 51.6421 232.483 51.1708 231.756C50.2795 229.858 49.5203 227.877 48.728 225.946C46.1861 219.888 45.4102 213.368 44.75 205.676Z"></path>
<path fill="#106835" d="M389.01 157.753C389.266 155.2 389.474 152.634 389.804 150.081C390.415 145.536 391.099 140.991 391.734 136.446C392.663 129.931 393.583 123.452 394.495 117.009C395.192 112.122 395.864 107.235 396.56 102.251C397.171 97.9503 397.782 93.6988 398.429 89.3739C398.735 87.2481 399.028 85.1345 399.37 83.021C399.436 82.6818 399.41 82.3313 399.297 82.0051C399.183 81.6789 398.985 81.3887 398.722 81.164C398.099 80.5409 397.501 79.9423 396.853 79.2948C396.519 78.9069 396.209 78.4989 395.925 78.0731C396.743 77.9875 397.269 77.8898 397.794 77.8898H422.534C422.847 77.8714 423.161 77.8714 423.474 77.8898C424.574 77.9997 424.696 78.1952 424.586 79.3558C424.403 80.8585 424.195 82.349 423.987 83.8395C423.091 89.9481 422.204 96.0566 421.324 102.165C421.324 102.41 421.324 102.654 421.324 103.167C422.094 103.24 422.863 103.387 423.633 103.387H457.633C460.627 103.387 460.663 103.387 460.26 106.282C459.038 114.639 457.817 122.971 456.668 131.315C455.756 137.79 454.856 144.27 453.968 150.753C453.847 152.012 453.412 153.22 452.703 154.268C451.995 155.316 451.035 156.17 449.912 156.751C449.474 157.068 449.065 157.424 448.69 157.814L389.01 157.753ZM415.496 144.876H421.691C424.012 144.876 426.333 144.876 428.654 144.876C429.62 144.876 430.169 144.62 430.279 143.532C430.45 141.785 430.768 140.051 431.012 138.316L433.871 117.986C433.871 117.51 433.871 117.033 433.957 116.386C433.187 116.313 432.588 116.227 431.977 116.215H421.605C419.455 116.215 419.394 116.215 419.076 118.267C417.863 126.461 416.673 134.663 415.509 142.873C415.465 143.548 415.461 144.225 415.496 144.901V144.876Z"></path>
<path fill="#106835" d="M144.569 157.752C145.241 152.645 145.889 147.538 146.585 142.432C147.233 137.691 147.929 132.963 148.601 128.235L150.507 114.797C151.175 110.007 151.855 105.214 152.547 100.417C152.963 97.5581 153.305 94.6749 153.867 91.8649C154.141 91.0288 154.143 90.1268 153.87 89.2898C153.598 88.4529 153.066 87.7244 152.352 87.2102C151.696 86.6468 151.075 86.0429 150.495 85.4021C150.924 85.2607 151.366 85.1584 151.814 85.0967H221.843C221.843 86.0863 221.843 86.8193 221.684 87.5401C221.317 89.9835 220.926 92.5125 220.523 95.0048C220.206 96.9228 220.193 96.9229 218.275 96.9229H177.959C176.908 102.042 176.456 107.1 175.625 112.329C176.172 112.458 176.727 112.548 177.287 112.597C182.943 112.597 188.612 112.475 194.269 112.451C200.377 112.451 206.486 112.451 212.594 112.451C213.816 112.451 214.073 112.683 213.902 113.905C213.511 116.825 213.071 119.757 212.582 122.664C212.374 123.972 212.191 124.069 210.835 124.094C209.699 124.094 208.563 124.094 207.439 124.094H174.049C173.756 125.743 173.463 127.209 173.231 128.687C172.657 132.536 172.119 136.396 171.569 140.257C171.472 140.88 171.411 141.508 171.386 142.138C171.325 143.446 171.496 143.617 172.864 143.69H173.243L211.006 143.934C211.788 143.934 212.558 144.056 213.523 144.142C212.9 148.858 212.46 153.354 211.446 157.764L144.569 157.752Z"></path>
<path fill="#106835" d="M512.17 157.752C512.488 155.016 512.756 152.267 513.135 149.53C514.43 140.262 515.745 130.985 517.081 121.7C518.303 113.429 519.525 105.158 520.673 96.8745C521.308 92.3908 521.895 87.8949 522.554 83.4356C522.667 82.9179 522.634 82.3791 522.46 81.8788C522.285 81.3786 521.975 80.9364 521.565 80.6012C520.795 79.9049 520.111 79.1108 519.219 78.1578C519.659 78.0008 520.113 77.8863 520.575 77.8158C529.298 77.8158 538.021 77.7425 547.05 77.8158C545.718 89.4343 543.959 100.711 542.676 112.024C543.507 112.549 543.898 112.024 544.313 111.694C547.978 109.25 551.643 106.807 555.248 104.278C556.223 103.596 557.393 103.249 558.583 103.288C566.072 103.288 573.561 103.288 581.062 103.288H582.553C582.809 104.266 582.113 104.51 581.637 104.816L570.898 112.146C564.985 116.218 559.076 120.291 553.171 124.363C552.657 124.705 552.181 125.096 551.497 125.585C552.56 126.806 553.5 128.028 554.466 129.116C562.065 137.936 569.664 146.749 577.263 155.553C577.865 156.113 578.229 156.883 578.277 157.704H551.497C551.334 157.191 551.113 156.699 550.837 156.238C547.331 151.864 543.788 147.527 540.257 143.19C539.87 142.786 539.463 142.402 539.035 142.041C538.844 142.516 538.693 143.007 538.583 143.507C538.192 146.305 537.826 149.115 537.459 151.925L536.726 157.704L512.17 157.752Z"></path>
<path fill="#106835" d="M314.204 157.752C313.874 157.423 313.605 156.97 313.202 156.763C310.478 155.285 308.89 153.098 309.158 149.909C309.39 147.282 309.757 144.656 310.124 142.041C311.125 134.947 312.139 127.853 313.166 120.759L315.438 104.877C315.633 103.557 315.817 103.398 317.099 103.313C317.417 103.313 317.723 103.313 318.04 103.313H371.295C372.687 103.207 374.078 103.526 375.285 104.229C376.491 104.931 377.456 105.984 378.051 107.247C378.696 108.477 378.939 109.878 378.747 111.254C377.387 120.661 376.047 130.064 374.728 139.463C373.982 144.766 373.249 150.056 372.492 155.346C372.37 156.152 372.174 156.946 372.003 157.789L314.204 157.752ZM353.384 115.31C353.085 115.191 352.774 115.105 352.456 115.053H339.994C338.968 115.053 338.565 115.615 338.443 116.568C338.198 118.56 337.905 120.551 337.624 122.543C336.671 129.4 335.71 136.254 334.741 143.104C334.68 143.581 334.668 144.057 334.607 144.753C335.425 144.753 336.085 144.888 336.757 144.888H347.141C349.194 144.888 349.243 144.888 349.585 142.921C350.782 134.776 351.963 126.631 353.128 118.486C353.213 117.436 353.274 116.495 353.384 115.335V115.31Z"></path>
<path fill="#106835" d="M596.407 157.752C596.013 157.289 595.561 156.879 595.063 156.53C593.763 155.812 592.715 154.713 592.059 153.38C591.404 152.047 591.173 150.546 591.398 149.078C592.62 141.491 593.585 133.892 594.66 126.293C595.625 119.512 596.566 112.719 597.531 105.939C597.605 105.438 597.715 104.949 597.788 104.448C597.786 104.27 597.822 104.093 597.896 103.931C597.969 103.768 598.077 103.624 598.212 103.507C598.347 103.391 598.506 103.305 598.677 103.257C598.849 103.208 599.029 103.198 599.205 103.227C599.584 103.227 599.962 103.227 600.341 103.227H656.968C659.558 103.227 659.607 103.3 659.24 105.902C658.189 113.11 657.155 120.327 656.137 127.551C655.892 129.225 655.611 130.911 655.416 132.597C655.417 132.77 655.382 132.942 655.311 133.101C655.241 133.259 655.137 133.401 655.008 133.517C654.879 133.632 654.726 133.719 654.56 133.771C654.395 133.823 654.22 133.839 654.048 133.818H653.29C646.632 133.818 639.961 133.892 633.291 133.965C628.832 133.965 624.372 134.124 619.852 134.209C618.471 134.209 618.142 134.429 617.958 135.553C617.531 138.29 617.176 141.027 616.822 143.775C616.827 144.081 616.868 144.384 616.944 144.679C617.641 144.679 618.313 144.777 618.972 144.765C624.959 144.765 630.937 144.712 636.907 144.606C640.988 144.606 645.08 144.411 649.124 144.386C649.656 144.427 650.188 144.317 650.661 144.071C651.133 143.825 651.528 143.452 651.8 142.993C652.288 142.224 652.875 141.515 653.681 140.403C653.827 140.938 653.913 141.487 653.938 142.041C653.474 145.339 652.997 148.638 652.484 151.924C652.178 153.842 651.788 155.748 651.433 157.654L596.407 157.752ZM620.976 115.322C620.866 117.399 620.035 119.463 620.28 121.797C621.061 121.797 621.672 121.882 622.283 121.882H632.827C633.657 121.882 634.586 121.943 634.769 120.868C635.075 119.036 635.27 117.203 635.502 115.371C630.67 114.934 625.809 114.926 620.976 115.346V115.322Z"></path>
<path fill="#106835" d="M248.513 157.752C247.621 154.49 246.741 151.228 245.85 147.978C244.367 142.586 242.893 137.194 241.427 131.803L237.053 116.213C236.43 113.966 235.746 111.742 235.257 109.47C234.984 108.106 234.277 106.867 233.241 105.939C232.582 105.316 232.02 104.595 231.201 103.728C231.596 103.57 232.005 103.452 232.423 103.373H256.588C258.14 103.373 258.335 103.593 258.726 105.181C260.868 113.961 263.011 122.75 265.153 131.546C265.153 131.607 265.226 131.656 265.324 131.778C266.069 131.693 266.191 130.996 266.448 130.483C270.638 122.041 274.853 113.611 278.97 105.133C279.185 104.549 279.59 104.055 280.119 103.729C280.649 103.404 281.272 103.265 281.89 103.337C286.924 103.41 291.957 103.337 296.99 103.337C297.601 103.337 298.212 103.337 299.055 103.447C298.992 103.979 298.873 104.503 298.701 105.01C293.92 115.183 289.127 125.364 284.321 135.553C281.161 142.248 278.009 148.951 274.865 155.663C274.548 156.347 274.352 157.08 274.096 157.788L248.513 157.752Z"></path>
<path fill="#106835" d="M470.608 157.752C470.938 154.697 471.207 151.643 471.622 148.589C472.514 141.991 473.492 135.394 474.432 128.797C475.373 122.2 476.24 115.835 477.242 109.384C477.412 108.783 477.402 108.146 477.213 107.551C477.024 106.956 476.665 106.429 476.179 106.036C475.404 105.304 474.666 104.534 473.968 103.727C474.358 103.544 474.768 103.409 475.19 103.324H501.408C501.77 103.357 502.129 103.415 502.483 103.495C502.531 103.979 502.531 104.466 502.483 104.949C501.615 110.984 500.711 117.02 499.844 123.055C498.952 129.347 498.097 135.639 497.217 141.93C496.598 146.353 495.967 150.771 495.324 155.186C495.189 156.053 494.908 156.896 494.688 157.752H470.608Z"></path>
<path fill="#106835" d="M478.574 99.2699C479.185 94.9206 479.723 90.9378 480.333 86.9673C480.602 85.3057 480.749 85.2568 482.447 85.2568H503.412C505.073 85.2568 505.244 85.4523 505.012 87.1627C504.523 90.8278 503.974 94.3831 503.509 97.9994C503.375 99.0012 502.923 99.4776 501.933 99.4654H480.773C480.114 99.4654 479.417 99.3432 478.574 99.2699Z"></path>
</svg>
